{
	"asset":{
		"generator":"Khronos glTF Blender I/O v4.3.47",
		"version":"2.0"
	},
	"scene":0,
	"scenes":[
		{
			"name":"Scene",
			"nodes":[
				0,
				7
			]
		}
	],
	"nodes":[
		{
			"name":"Empty",
			"rotation":[
				0.70710688829422,
				0,
				0,
				0.7071066498756409
			],
			"translation":[
				0.1959698349237442,
				0.8492018580436707,
				0
			]
		},
		{
			"name":"B4",
			"rotation":[
				1.8299327335011363e-21,
				2.9292732415711474e-29,
				7.67529418385475e-15,
				1
			],
			"translation":[
				2.7200464103316335e-15,
				1.6911311149597168,
				7.105445145292894e-15
			]
		},
		{
			"children":[
				1
			],
			"name":"B3",
			"rotation":[
				-1.0796242833066572e-07,
				-4.8851127587568044e-08,
				-0.2519928216934204,
				0.9677290916442871
			],
			"translation":[
				2.9802375678400495e-08,
				1.5939606428146362,
				-3.019806626980426e-14
			]
		},
		{
			"children":[
				2
			],
			"name":"B2",
			"rotation":[
				6.27230676286672e-08,
				1.0003895489774095e-08,
				0.5481232404708862,
				0.8363975882530212
			],
			"scale":[
				1,
				0.9999999403953552,
				1
			],
			"translation":[
				-5.960463766996327e-08,
				1.2715765237808228,
				-9.103828801926284e-15
			]
		},
		{
			"children":[
				3
			],
			"name":"B1",
			"rotation":[
				4.345251625181845e-08,
				-3.840543882915881e-08,
				-0.319668710231781,
				0.9475293755531311
			],
			"scale":[
				1,
				0.9999998807907104,
				1
			],
			"translation":[
				0,
				0.4107311964035034,
				0
			]
		},
		{
			"children":[
				4
			],
			"name":"B0",
			"translation":[
				-0.262686163187027,
				0,
				0
			]
		},
		{
			"mesh":0,
			"name":"Plane",
			"skin":0
		},
		{
			"children":[
				6,
				5
			],
			"name":"Armature"
		}
	],
	"materials":[
		{
			"doubleSided":true,
			"name":"Material",
			"pbrMetallicRoughness":{
				"baseColorTexture":{
					"index":0
				},
				"metallicFactor":0,
				"roughnessFactor":0.5
			}
		}
	],
	"meshes":[
		{
			"name":"Plane",
			"primitives":[
				{
					"attributes":{
						"POSITION":0,
						"NORMAL":1,
						"TEXCOORD_0":2,
						"JOINTS_0":3,
						"WEIGHTS_0":4
					},
					"indices":5,
					"material":0
				}
			]
		}
	],
	"textures":[
		{
			"sampler":0,
			"source":0
		}
	],
	"images":[
		{
			"mimeType":"image/png",
			"name":"Krook Tree",
			"uri":"Krook%20Tree.png"
		}
	],
	"skins":[
		{
			"inverseBindMatrices":6,
			"joints":[
				5,
				4,
				3,
				2,
				1
			],
			"name":"Armature"
		}
	],
	"accessors":[
		{
			"bufferView":0,
			"componentType":5126,
			"count":12,
			"max":[
				1.783268928527832,
				4.525724411010742,
				6.080710477363027e-07
			],
			"min":[
				-2.1796793937683105,
				0,
				0
			],
			"type":"VEC3"
		},
		{
			"bufferView":1,
			"componentType":5126,
			"count":12,
			"type":"VEC3"
		},
		{
			"bufferView":2,
			"componentType":5126,
			"count":12,
			"type":"VEC2"
		},
		{
			"bufferView":3,
			"componentType":5121,
			"count":12,
			"type":"VEC4"
		},
		{
			"bufferView":4,
			"componentType":5126,
			"count":12,
			"type":"VEC4"
		},
		{
			"bufferView":5,
			"componentType":5123,
			"count":30,
			"type":"SCALAR"
		},
		{
			"bufferView":6,
			"componentType":5126,
			"count":5,
			"type":"MAT4"
		}
	],
	"bufferViews":[
		{
			"buffer":0,
			"byteLength":144,
			"byteOffset":0,
			"target":34962
		},
		{
			"buffer":0,
			"byteLength":144,
			"byteOffset":144,
			"target":34962
		},
		{
			"buffer":0,
			"byteLength":96,
			"byteOffset":288,
			"target":34962
		},
		{
			"buffer":0,
			"byteLength":48,
			"byteOffset":384,
			"target":34962
		},
		{
			"buffer":0,
			"byteLength":192,
			"byteOffset":432,
			"target":34962
		},
		{
			"buffer":0,
			"byteLength":60,
			"byteOffset":624,
			"target":34963
		},
		{
			"buffer":0,
			"byteLength":320,
			"byteOffset":684
		}
	],
	"samplers":[
		{
			"magFilter":9729,
			"minFilter":9987
		}
	],
	"buffers":[
		{
			"byteLength":1004,
			"uri":"tree.bin"
		}
	]
}
